# xmcd
#
# Track frame offsets:
#	150
#	16040
#	28170
#	42840
#	55920
#	69087
#	81657
#	97157
#	109427
#	121825
#	131410
#	157745
#	170065
#	200137
#	210522
#	223820
#	236612
#	247140
#	265112
#	279662
#
# Disc length: 3949 seconds
#
# Revision: 3
# Processed by: cddbd v1.5.2PL0 Copyright (c) Steve Scherf et al.
# Submitted via: audiograbber 1.83.01
#
DISCID=290f6b14
DTITLE=Various Artist - Capital Gold Jazz Legends [CD1)
DYEAR=2004
DGENRE=Jazz
TTITLE0=Glenn Miller - In The Mood
TTITLE1=Louis Jordan - Choo Choo Ch'Boogie
TTITLE2=Cab Calloway - Minnie The Moocher
TTITLE3=Billie Holiday - That Ole Devil
TTITLE4=Julie London - Cry Me A River
TTITLE5=Dinah Washington - Mad About The Boy
TTITLE6=Lester Young and Oscar Peterson - The Sunny Side Of The Street
TTITLE7=Ella Fitzgerald - I've Got You Under My Skin
TTITLE8=Nat 'King' Cole - Let There Be Love
TTITLE9=Tony Bennet - Chicago
TTITLE10=Stan Getz and Joao Gilberto - Desafinado
TTITLE11=Count Basie and His Orchestra - Come Fly With Me
TTITLE12=Dizzy Gillespie - Take The 'A' Train
TTITLE13=Louis Armstrong - What A Wonderful World
TTITLE14=Acker Bilk - Stranger On The Shore
TTITLE15=Errol Garner - Misty
TTITLE16=Chet Baker - My Funny Valentine
TTITLE17=Louis Armstrong and Duke Ellington - Mood Indigo
TTITLE18=Sarah Vaughan - Summertime
TTITLE19=Billy Taylor Trio - I Wish I Knew (How It Would Feel To Be Free)
EXTD=YEAR: 2004
EXTT0=
EXTT1=
EXTT2=
EXTT3=
EXTT4=
EXTT5=
EXTT6=
EXTT7=
EXTT8=
EXTT9=
EXTT10=
EXTT11=
EXTT12=
EXTT13=
EXTT14=
EXTT15=
EXTT16=
EXTT17=
EXTT18=
EXTT19=
PLAYORDER=
